<svg width="103" height="40" viewBox="0 0 103 40" fill="none" xmlns="http://www.w3.org/2000/svg">
<path d="M41.249 30.3502H36.5012V11.0505H40.6314L40.8051 14.563C41.4741 13.3278 42.3748 12.3693 43.507 11.6873C44.6522 11.0054 45.9645 10.6645 47.4442 10.6645C47.8302 10.6645 48.2226 10.6902 48.6215 10.7417C49.0332 10.7931 49.4385 10.8703 49.8373 10.9733L49.2583 15.2578C48.4606 15.0262 47.6886 14.9104 46.9424 14.9104C45.8101 14.9104 44.813 15.1742 43.9509 15.7017C43.1017 16.2292 42.4391 16.9626 41.9631 17.9018C41.487 18.8282 41.249 19.909 41.249 21.1442V30.3502Z" fill="white"/>
<path d="M55.0483 5.93604C54.3792 5.93604 53.8131 5.70444 53.3499 5.24125C52.8996 4.76519 52.6744 4.19263 52.6744 3.52357C52.6744 2.86738 52.8996 2.30769 53.3499 1.8445C53.8131 1.36844 54.3792 1.13041 55.0483 1.13041C55.7302 1.13041 56.3027 1.36844 56.7659 1.8445C57.2291 2.30769 57.4607 2.86738 57.4607 3.52357C57.4607 4.19263 57.2291 4.76519 56.7659 5.24125C56.3027 5.70444 55.7302 5.93604 55.0483 5.93604ZM57.4221 30.3502H52.6744V11.0505H57.4221V30.3502Z" fill="white"/>
<path d="M71.5688 40H66.493L70.5073 30.273L60.9347 11.0505H66.2807L72.7654 24.8497L78.4781 11.0505H83.5539L71.5688 40Z" fill="white"/>
<path d="M102.931 30.3502H98.8007L98.5305 27.9763C97.8228 28.8512 96.9415 29.5331 95.8864 30.0221C94.8314 30.4981 93.6605 30.7361 92.3739 30.7361C91.01 30.7361 89.7942 30.4724 88.7262 29.9449C87.6583 29.4045 86.8156 28.6711 86.198 27.7447C85.5932 26.8183 85.2909 25.7633 85.2909 24.5795C85.2909 23.3315 85.619 22.2378 86.2752 21.2986C86.9442 20.3465 87.8513 19.6002 88.9964 19.0598C90.1544 18.5194 91.4732 18.2492 92.9529 18.2492C93.8535 18.2492 94.7542 18.3522 95.6548 18.558C96.5683 18.7639 97.4111 19.0534 98.1831 19.4265V18.8089C98.1831 17.9597 97.9515 17.2264 97.4883 16.6088C97.0251 15.9912 96.4011 15.5151 95.6162 15.1806C94.8314 14.8332 93.95 14.6595 92.9722 14.6595C92.0844 14.6595 91.1966 14.8139 90.3088 15.1227C89.421 15.4186 88.5911 15.8625 87.8191 16.4544L86.4682 12.7295C87.7033 12.0476 88.9643 11.5329 90.2509 11.1856C91.5504 10.8382 92.8178 10.6645 94.0529 10.6645C95.8671 10.6645 97.4368 11.0247 98.7621 11.7452C100.087 12.4529 101.11 13.4693 101.831 14.7946C102.564 16.107 102.931 17.6574 102.931 19.4458V30.3502ZM93.3582 26.9148C94.1945 26.9148 94.9665 26.7411 95.6741 26.3937C96.3946 26.0463 96.9801 25.5638 97.4304 24.9462C97.8936 24.3158 98.1381 23.5953 98.1638 22.7847V22.5724C97.5591 22.1349 96.8771 21.8004 96.118 21.5688C95.3589 21.3243 94.5933 21.2021 93.8214 21.2021C92.6376 21.2021 91.6662 21.4723 90.9071 22.0127C90.148 22.5402 89.7684 23.235 89.7684 24.097C89.7684 24.6246 89.9228 25.1071 90.2316 25.5445C90.5404 25.9691 90.965 26.3036 91.5054 26.5481C92.0586 26.7926 92.6762 26.9148 93.3582 26.9148Z" fill="white"/>
<path d="M29.8294 9.51849C28.257 5.7901 25.2935 2.81931 21.5666 1.23508C19.6626 0.413464 17.6095 -0.00687865 15.5354 0.000177878C13.4611 -0.00992631 11.4073 0.410543 9.50429 1.23508C5.769 2.81206 2.79852 5.78458 1.22655 9.51849C0.417044 11.424 0 13.4728 0 15.5428C0 17.6128 0.417044 19.6616 1.22655 21.5671C2.81168 25.2851 5.77914 28.2438 9.50429 29.8203C11.405 30.6522 13.4604 31.0731 15.5354 31.0554C17.61 31.0682 19.6644 30.6474 21.5666 29.8203L22.2603 29.4891C13.2136 28.9469 9.20277 24.0372 7.84576 21.6877C7.3039 20.9812 6.8483 20.2127 6.48871 19.3984C5.46414 16.9143 5.46414 14.1263 6.48871 11.6421C6.98498 10.4367 7.70075 9.33365 8.59965 8.38893C9.48223 7.45376 10.5368 6.69703 11.7058 6.15997C12.8982 5.59754 14.2018 5.30943 15.5205 5.31667C16.8439 5.31124 18.1518 5.59921 19.3502 6.15997C20.5147 6.70456 21.568 7.46034 22.4563 8.38893C23.3458 9.33805 24.0559 10.4403 24.5522 11.6421C25.0693 12.8698 25.3355 14.1882 25.3355 15.5202C25.3355 16.8521 25.0693 18.1707 24.5522 19.3984C24.0485 20.5964 23.3392 21.6974 22.4563 22.6516C21.5686 23.5848 20.5154 24.3456 19.3502 24.8956C18.2421 25.4067 17.042 25.6883 15.822 25.7239C18.9416 27.0237 22.3324 27.5408 25.6981 27.2299C25.9695 27.004 26.2408 26.7631 26.4971 26.5071C27.9115 25.0922 29.0426 23.4207 29.8294 21.5822C30.6389 19.6766 31.056 17.6278 31.056 15.5579C31.056 13.4879 30.6389 11.4391 29.8294 9.53357V9.51849Z" fill="white"/>
</svg>
