<svg width="104" height="40" viewBox="0 0 104 40" fill="none" xmlns="http://www.w3.org/2000/svg">
<path d="M41.7836 30.3502H37.0359V11.0505H41.166L41.3397 14.563C42.0087 13.3278 42.9094 12.3693 44.0416 11.6873C45.1868 11.0054 46.4991 10.6645 47.9788 10.6645C48.3648 10.6645 48.7572 10.6902 49.1561 10.7417C49.5678 10.7931 49.9731 10.8703 50.3719 10.9733L49.793 15.2578C48.9952 15.0262 48.2232 14.9104 47.477 14.9104C46.3447 14.9104 45.3476 15.1742 44.4855 15.7017C43.6363 16.2292 42.9737 16.9626 42.4977 17.9018C42.0216 18.8282 41.7836 19.909 41.7836 21.1442V30.3502Z" fill="black"/>
<path d="M55.5829 5.93604C54.9138 5.93604 54.3477 5.70444 53.8845 5.24125C53.4342 4.76519 53.209 4.19263 53.209 3.52357C53.209 2.86738 53.4342 2.30769 53.8845 1.8445C54.3477 1.36844 54.9138 1.13041 55.5829 1.13041C56.2648 1.13041 56.8373 1.36844 57.3005 1.8445C57.7637 2.30769 57.9953 2.86738 57.9953 3.52357C57.9953 4.19263 57.7637 4.76519 57.3005 5.24125C56.8373 5.70444 56.2648 5.93604 55.5829 5.93604ZM57.9567 30.3502H53.209V11.0505H57.9567V30.3502Z" fill="black"/>
<path d="M72.1034 40H67.0276L71.0419 30.273L61.4693 11.0505H66.8153L73.3 24.8497L79.0127 11.0505H84.0885L72.1034 40Z" fill="black"/>
<path d="M103.465 30.3502H99.3353L99.0651 27.9763C98.3574 28.8512 97.4761 29.5331 96.421 30.0221C95.366 30.4981 94.1951 30.7361 92.9085 30.7361C91.5446 30.7361 90.3288 30.4724 89.2608 29.9449C88.1929 29.4045 87.3502 28.6711 86.7326 27.7447C86.1279 26.8183 85.8255 25.7633 85.8255 24.5795C85.8255 23.3315 86.1536 22.2378 86.8098 21.2986C87.4788 20.3465 88.3859 19.6002 89.531 19.0598C90.689 18.5194 92.0078 18.2492 93.4875 18.2492C94.3881 18.2492 95.2888 18.3522 96.1894 18.558C97.103 18.7639 97.9457 19.0534 98.7177 19.4265V18.8089C98.7177 17.9597 98.4861 17.2264 98.0229 16.6088C97.5597 15.9912 96.9357 15.5151 96.1508 15.1806C95.366 14.8332 94.4846 14.6595 93.5068 14.6595C92.619 14.6595 91.7312 14.8139 90.8434 15.1227C89.9556 15.4186 89.1257 15.8625 88.3538 16.4544L87.0028 12.7295C88.238 12.0476 89.4989 11.5329 90.7855 11.1856C92.085 10.8382 93.3524 10.6645 94.5876 10.6645C96.4017 10.6645 97.9714 11.0247 99.2967 11.7452C100.622 12.4529 101.645 13.4693 102.365 14.7946C103.099 16.107 103.465 17.6574 103.465 19.4458V30.3502ZM93.8928 26.9148C94.7291 26.9148 95.5011 26.7411 96.2087 26.3937C96.9293 26.0463 97.5147 25.5638 97.965 24.9462C98.4282 24.3158 98.6727 23.5953 98.6984 22.7847V22.5724C98.0937 22.1349 97.4117 21.8004 96.6526 21.5688C95.8935 21.3243 95.1279 21.2021 94.356 21.2021C93.1722 21.2021 92.2008 21.4723 91.4417 22.0127C90.6826 22.5402 90.303 23.235 90.303 24.097C90.303 24.6246 90.4574 25.1071 90.7662 25.5445C91.075 25.9691 91.4996 26.3036 92.04 26.5481C92.5933 26.7926 93.2108 26.9148 93.8928 26.9148Z" fill="black"/>
<path d="M30.364 9.51849C28.7916 5.7901 25.8281 2.81931 22.1012 1.23508C20.1972 0.413464 18.1441 -0.00687865 16.07 0.000177878C13.9957 -0.00992631 11.9419 0.410543 10.0389 1.23508C6.30361 2.81206 3.33313 5.78458 1.76116 9.51849C0.951651 11.424 0.534607 13.4728 0.534607 15.5428C0.534607 17.6128 0.951651 19.6616 1.76116 21.5671C3.34629 25.2851 6.31375 28.2438 10.0389 29.8203C11.9396 30.6522 13.995 31.0731 16.07 31.0554C18.1446 31.0682 20.199 30.6474 22.1012 29.8203L22.7949 29.4891C13.7482 28.9469 9.73738 24.0372 8.38037 21.6877C7.8385 20.9812 7.38291 20.2127 7.02332 19.3984C5.99874 16.9143 5.99874 14.1263 7.02332 11.6421C7.51959 10.4367 8.23536 9.33365 9.13426 8.38893C10.0168 7.45376 11.0715 6.69703 12.2404 6.15997C13.4329 5.59754 14.7364 5.30943 16.0551 5.31667C17.3785 5.31124 18.6864 5.59921 19.8848 6.15997C21.0493 6.70456 22.1026 7.46034 22.9909 8.38893C23.8804 9.33805 24.5905 10.4403 25.0868 11.6421C25.6039 12.8698 25.8701 14.1882 25.8701 15.5202C25.8701 16.8521 25.6039 18.1707 25.0868 19.3984C24.5831 20.5964 23.8738 21.6974 22.9909 22.6516C22.1032 23.5848 21.05 24.3456 19.8848 24.8956C18.7767 25.4067 17.5766 25.6883 16.3566 25.7239C19.4762 27.0237 22.867 27.5408 26.2327 27.2299C26.5041 27.004 26.7754 26.7631 27.0317 26.5071C28.4461 25.0922 29.5772 23.4207 30.364 21.5822C31.1735 19.6766 31.5906 17.6278 31.5906 15.5579C31.5906 13.4879 31.1735 11.4391 30.364 9.53357V9.51849Z" fill="black"/>
</svg>
